PathFileType	4	(X/Y/Z)	./resultDataOpenSim/trcMotMarkerGrf/sub06/qtm-12-05.trc
DataRate	CameraRate	NumFrames	NumMarkers	Units	OrigDataRate	OrigDataStartFrame	OrigNumFrames
250.000000	250.000000	8	24	m	250.000000	453	517
Frame#	Time	L.Toe.Tip			R.Toe.Tip			L.Ankle.Lat			R.Ankle.Lat			L.Ankle.Med			R.Ankle.Med			L.Heel			R.Heel			L.Knee.Lat			R.Knee.Lat			L.Knee.Med			R.Knee.Med			L.Thigh.Upper			R.Thigh.Upper			L.ASIS			R.ASIS			V.Sacral			L.Acromium			R.Acromium			C7			L.Elbow			R.Elbow			L.Wrist.Lat			R.Wrist.Lat
		X1	Y1	Z1	X2	Y2	Z2	X3	Y3	Z3	X4	Y4	Z4	X5	Y5	Z5	X6	Y6	Z6	X7	Y7	Z7	X8	Y8	Z8	X9	Y9	Z9	X10	Y10	Z10	X11	Y11	Z11	X12	Y12	Z12	X13	Y13	Z13	X14	Y14	Z14	X15	Y15	Z15	X16	Y16	Z16	X17	Y17	Z17	X18	Y18	Z18	X19	Y19	Z19	X20	Y20	Z20	X21	Y21	Z21	X22	Y22	Z22	X23	Y23	Z23	X24	Y24	Z24

453	1.808	1.6920187	0.034037352	-0.065808307	1.304413	0.082729334	0.11202783	1.5679871	0.067074933	-0.09862775	1.2699108	0.2172403	0.13208566	1.5663448	0.081494639	-0.01184465	1.3100114	0.21063426	0.053239163	1.4905453	0.039679561	-0.059913322	1.2342442	0.25193881	0.065334136	1.6406362	0.43660605	-0.10642045	1.5800564	0.42941486	0.1783303	1.6025241	0.43613014	0.0088586207	1.5913815	0.40354932	0.044784148	1.547904	0.8224783	-0.17857622	1.4741009	0.7823391	0.15466197	1.6074457	0.8664429	-0.12150857	1.5780063	0.84880469	0.124648	1.402646	0.92699002	-0.012316083	1.5246176	1.3337466	-0.19469951	1.5121244	1.3318166	0.16940371	1.4375991	1.3700314	-0.017329513	1.4476181	1.0227008	-0.24132533	1.4710987	1.0097896	0.24412744	1.5732903	0.81430831	-0.2811778	1.6817055	0.87884678	0.22520374
454	1.812	1.6920204	0.034052264	-0.065840792	1.3222867	0.082179866	0.11352637	1.5679463	0.067221088	-0.098598935	1.2849039	0.21543149	0.13269046	1.5661932	0.081615331	-0.011838239	1.3245207	0.20958703	0.053624692	1.490548	0.039854097	-0.059835292	1.2478237	0.24913814	0.065269318	1.6413849	0.43664166	-0.10616161	1.591146	0.43268369	0.17814633	1.6028583	0.43637934	0.0090552348	1.6034079	0.40703759	0.044721647	1.5529102	0.82332578	-0.17840307	1.4803392	0.78464702	0.1550924	1.6127398	0.86793782	-0.12175901	1.5834759	0.85119407	0.12437954	1.407658	0.9288149	-0.012037781	1.530613	1.3358677	-0.19444356	1.5176293	1.333597	0.16957121	1.4433676	1.3717071	-0.017187736	1.4557256	1.0239277	-0.24160323	1.4740314	1.0119557	0.24315114	1.5854943	0.81751825	-0.28028092	1.6817094	0.87652675	0.22701296
455	1.816	1.6920262	0.034060776	-0.065880198	1.3402738	0.081562809	0.11501696	1.567908	0.067363714	-0.098563411	1.2997487	0.21352624	0.13321152	1.5657947	0.081640868	-0.011827711	1.3391607	0.20836124	0.054064245	1.4905533	0.040037741	-0.059740214	1.261459	0.24609572	0.065318522	1.6420676	0.43669815	-0.10593037	1.602187	0.4359426	0.17796188	1.6031595	0.43659125	0.0092280427	1.6156899	0.41074218	0.044642187	1.558143	0.82418504	-0.17817203	1.4866384	0.78696051	0.15556406	1.6179705	0.86939283	-0.12199789	1.5888592	0.85356413	0.12404872	1.4131132	0.93054526	-0.011886639	1.5365852	1.3379631	-0.19416596	1.5232003	1.3352829	0.16972505	1.4491347	1.3733333	-0.017031633	1.4638176	1.025153	-0.24190097	1.4770396	1.0141573	0.24227169	1.5978941	0.8208066	-0.27932084	1.6816152	0.87429113	0.22884143
456	1.82	1.6920293	0.034062343	-0.065923761	1.358471	0.080892429	0.11650579	1.567863	0.0675025	-0.098506253	1.3144788	0.21149471	0.13366645	1.5652572	0.081622233	-0.011807374	1.3538893	0.20696884	0.054503951	1.4905569	0.040224367	-0.059617493	1.2751388	0.24280691	0.065461276	1.6426764	0.43676573	-0.10572629	1.6131795	0.43918164	0.17778909	1.6034919	0.43676526	0.0093925664	1.6277799	0.41460752	0.044521698	1.5632683	0.82506024	-0.17794219	1.4929955	0.7892724	0.1560738	1.6231575	0.8708087	-0.12223202	1.5944003	0.85588677	0.12373058	1.419129	0.93214297	-0.011834158	1.5425618	1.3400571	-0.19387038	1.5288272	1.3368839	0.16988097	1.4548956	1.3749059	-0.016862397	1.4718931	1.0263712	-0.24222003	1.480009	1.0163659	0.24147433	1.6105422	0.82416591	-0.27829903	1.6814171	0.87214112	0.23069011
457	1.824	1.6920277	0.034059848	-0.065967966	1.3769216	0.08018065	0.11799085	1.5678083	0.067645968	-0.098420478	1.3291814	0.20931009	0.13408572	1.5648288	0.081652887	-0.011773504	1.3686907	0.20541387	0.054926962	1.4905595	0.04041605	-0.059470406	1.2888899	0.23927858	0.065670046	1.6431965	0.43683108	-0.10555626	1.6240983	0.44238696	0.17762033	1.6038788	0.43691068	0.0095652877	1.6390447	0.41854243	0.044328941	1.567995	0.82593181	-0.17776742	1.4994079	0.79157555	0.1566186	1.6283241	0.87218748	-0.12246621	1.600158	0.85816636	0.1234364	1.425326	0.93364225	-0.011780973	1.5485501	1.3421431	-0.1935664	1.5344841	1.3384065	0.17004229	1.460645	1.376414	-0.016686641	1.4799505	1.0275875	-0.24255432	1.4829055	1.0185458	0.24072659	1.6232507	0.82759437	-0.2772456	1.6811214	0.87007733	0.23257346
458	1.828	1.6920258	0.034059553	-0.066009431	1.3955162	0.079422622	0.11943931	1.5677489	0.067805674	-0.09831494	1.343924	0.20697576	0.13449569	1.5646112	0.081773217	-0.011726719	1.3835668	0.20369425	0.055333355	1.4905672	0.040619791	-0.059311563	1.3027564	0.23552962	0.065928603	1.6436249	0.43688505	-0.10542327	1.6348993	0.44554499	0.17743398	1.6042737	0.43705181	0.0097678302	1.6494418	0.42249209	0.044038321	1.5724864	0.82677428	-0.17762328	1.5058726	0.79386283	0.15719543	1.633483	0.87352389	-0.12270127	1.6059882	0.86042175	0.12312561	1.4313416	0.93509525	-0.011668209	1.5545282	1.3441723	-0.19325935	1.5401473	1.3398499	0.17019891	1.4663791	1.3778512	-0.016521064	1.4879788	1.0288054	-0.24289256	1.4857691	1.0206691	0.23999953	1.6356509	0.83111825	-0.27620526	1.6807467	0.86809954	0.23452226
459	1.832	1.692031	0.034067416	-0.066045669	1.4142164	0.078621099	0.1208228	1.567695	0.067988311	-0.098210803	1.3587474	0.20450347	0.13490845	1.5644639	0.081934912	-0.011671452	1.3985233	0.2018147	0.055717285	1.4905878	0.040839576	-0.059156858	1.3167587	0.23157501	0.06623113	1.6439749	0.43692548	-0.10531894	1.6455516	0.44865004	0.17721254	1.6045396	0.43723021	0.01002617	1.6594338	0.42645134	0.043653926	1.5770728	0.82757435	-0.177463	1.512387	0.79612708	0.15780128	1.6386357	0.87480736	-0.12293573	1.6118253	0.86264736	0.12278069	1.4372305	0.93651731	-0.011522308	1.5604809	1.3461057	-0.19295275	1.5458105	1.3412122	0.17033851	1.4720986	1.3792167	-0.016379178	1.4959547	1.030021	-0.24322884	1.4886001	1.0227308	0.23927898	1.6475187	0.83476592	-0.2751935	1.6803144	0.86620567	0.23656568
460	1.836	1.6920485	0.034084228	-0.066076889	1.4332288	0.077810928	0.12214864	1.5676545	0.068191784	-0.098126062	1.3736708	0.20189738	0.13531952	1.5642073	0.082067387	-0.011616627	1.4135614	0.19979894	0.056056227	1.4906243	0.041077485	-0.059014516	1.3308762	0.22741822	0.066573428	1.644265	0.43695307	-0.10523051	1.6560675	0.45170524	0.17695461	1.604538	0.43748528	0.010352657	1.6693736	0.4304238	0.043214364	1.5818017	0.82833074	-0.17728949	1.5189483	0.79836118	0.15843309	1.6437781	0.87602725	-0.12316761	1.6177153	0.86482064	0.12241536	1.4432326	0.93789518	-0.011397638	1.5664157	1.3479427	-0.19265433	1.5514764	1.3424981	0.17045644	1.4778096	1.3805125	-0.016260981	1.5038648	1.031225	-0.24356621	1.4913249	1.0247404	0.2385665	1.6589893	0.83852251	-0.27418171	1.6798404	0.86439141	0.23868638
